Hanif_Deep_2_5_grf.mot
version=1
nRows=21
nColumns=19
inDegrees=yes
endheader
time	right_ground_force_vx	right_ground_force_vy	right_ground_force_vz	right_ground_force_px	right_ground_force_py	right_ground_force_pz	right_ground_torque_x	right_ground_torque_y	right_ground_torque_z	left_ground_force_vx	left_ground_force_vy	left_ground_force_vz	left_ground_force_px	left_ground_force_py	left_ground_force_pz	left_ground_torque_x	left_ground_torque_y	left_ground_torque_z
1.540000	-3.417580	283.962000	54.352300	0.209589	0.000000	-1.432360	-20.955300	2.897070	3.425480	-3.977780	289.862000	-44.990000	0.214870	0.000000	-0.965016	18.062900	-5.402170	5.290800
1.545000	-2.884650	280.673000	54.614300	0.211170	0.000000	-1.431430	-20.966900	2.834080	3.847150	-4.463810	286.437000	-44.774800	0.216414	0.000000	-0.965181	17.908900	-5.281590	5.685550
1.550000	-3.062140	278.567000	54.680100	0.211283	0.000000	-1.431010	-20.930100	2.776100	3.854060	-3.905440	283.039000	-45.352100	0.217428	0.000000	-0.965322	17.724500	-5.129120	5.920280
1.555000	-3.202320	276.418000	53.780500	0.211969	0.000000	-1.431160	-20.728000	2.683630	4.002360	-3.603830	279.837000	-45.054400	0.218097	0.000000	-0.966219	17.767900	-4.932390	6.026320
1.560000	-2.871520	273.358000	53.420900	0.212594	0.000000	-1.430780	-20.598100	2.645540	4.133300	-3.656950	276.216000	-45.078900	0.219662	0.000000	-0.967511	17.898600	-4.895380	6.413170
1.565000	-2.823920	270.839000	52.930200	0.212357	0.000000	-1.430000	-20.619800	2.599380	4.024500	-3.056280	272.868000	-45.011600	0.220130	0.000000	-0.967935	17.784700	-4.783870	6.464200
1.570000	-2.450030	265.609000	52.687800	0.213741	0.000000	-1.429320	-20.398400	2.551160	4.336730	-2.862790	269.970000	-45.303500	0.220411	0.000000	-0.967728	17.535800	-4.663810	6.479300
1.575000	-2.478670	262.445000	52.002200	0.214214	0.000000	-1.429640	-20.071500	2.367200	4.383380	-2.149660	266.486000	-44.811900	0.221160	0.000000	-0.967835	17.323500	-4.591380	6.593840
1.580000	-2.639340	257.692000	51.341600	0.215001	0.000000	-1.428990	-19.880300	2.393590	4.536570	-0.361736	260.027000	-44.965200	0.221617	0.000000	-0.968585	17.061600	-4.547280	6.579510
1.585000	-2.997280	254.752000	50.993300	0.215733	0.000000	-1.427730	-19.979200	2.338920	4.683830	-0.147981	254.633000	-44.496600	0.222483	0.000000	-0.968825	16.764500	-4.489290	6.685870
1.590000	-3.106240	252.016000	50.444500	0.217335	0.000000	-1.426880	-19.979300	2.120790	5.017390	0.562757	250.779000	-44.649300	0.222882	0.000000	-0.969160	16.579400	-4.396340	6.696280
1.595000	-3.478320	247.884000	50.882000	0.218871	0.000000	-1.427250	-19.567100	1.979500	5.337400	0.434072	247.192000	-43.971300	0.223105	0.000000	-0.970357	16.640900	-4.319780	6.655280
1.600000	-4.101580	244.906000	49.595000	0.220288	0.000000	-1.426070	-19.628500	1.799610	5.603300	0.645550	243.274000	-43.326700	0.224637	0.000000	-0.970351	16.370700	-4.320410	6.945360
1.605000	-4.404440	242.049000	49.626400	0.221298	0.000000	-1.426070	-19.404400	1.711100	5.794980	0.346817	238.571000	-42.977500	0.226894	0.000000	-0.971701	16.382400	-4.066780	7.352770
1.610000	-4.425480	237.313000	49.043400	0.222132	0.000000	-1.425190	-19.233800	1.607610	5.882610	-0.313206	235.761000	-42.743500	0.227256	0.000000	-0.971975	16.268300	-3.895730	7.347210
1.615000	-3.887210	236.086000	48.662700	0.221756	0.000000	-1.424850	-19.207400	1.562200	5.741450	-1.194750	232.374000	-42.101000	0.228707	0.000000	-0.971461	15.935000	-3.855700	7.603180
1.620000	-3.506830	231.089000	48.912200	0.223206	0.000000	-1.424380	-18.904800	1.453550	5.971070	-1.942010	228.600000	-41.231000	0.229811	0.000000	-0.973886	16.247200	-3.662620	7.721980
1.625000	-3.346580	228.730000	48.742700	0.223455	0.000000	-1.424030	-18.789100	1.405350	5.966520	-1.820140	225.371000	-41.714700	0.230330	0.000000	-0.972211	15.637800	-3.517630	7.744040
1.630000	-2.739680	226.680000	48.680800	0.223681	0.000000	-1.425400	-18.304600	1.395110	5.962640	-2.333900	221.599000	-42.236600	0.231371	0.000000	-0.972922	15.546600	-3.437480	7.890660
1.635000	-1.465290	223.870000	48.699600	0.222594	0.000000	-1.424050	-18.363600	1.409700	5.630300	-2.128680	220.182000	-41.741700	0.230698	0.000000	-0.972340	15.313100	-3.301290	7.655880
1.640000	-0.373578	220.893000	49.267300	0.223719	0.000000	-1.424160	-18.082700	1.383790	5.815390	-2.183840	214.391000	-42.279500	0.231370	0.000000	-0.972978	15.051100	-3.279210	7.663950
